<?xml version="1.0" encoding="utf-8"?>
<!-- Generator: Adobe Illustrator 16.0.4, SVG Export Plug-In . SVG Version: 6.00 Build 0)  -->
<!DOCTYPE svg PUBLIC "-//W3C//DTD SVG 1.1//EN" "http://www.w3.org/Graphics/SVG/1.1/DTD/svg11.dtd">
<svg version="1.1" id="Capa_1" xmlns="http://www.w3.org/2000/svg" xmlns:xlink="http://www.w3.org/1999/xlink" x="0px" y="0px"
	 width="30.003px" height="45.41px" viewBox="0 0 30.003 45.41" enable-background="new 0 0 30.003 45.41" xml:space="preserve">
<g>
	<g>
		<path d="M15.001,45.41c8.018,0,14.587-6.322,14.982-14.243c0.013-0.048,0.02-0.099,0.02-0.152v-9.952
			c0-2.151-1.75-3.901-3.901-3.902c-0.031-2.125-1.768-3.845-3.899-3.845c-1.052,0-2.006,0.42-2.708,1.099
			c-0.189-1.977-1.858-3.527-3.883-3.527c-1.042,0-1.987,0.413-2.688,1.081V3.902C12.924,1.75,11.172,0,9.02,0
			S5.118,1.75,5.118,3.902v14.618H3.904C1.751,18.521,0,20.271,0,22.423v7.986C0,38.68,6.73,45.41,15.001,45.41z"/>
		<path fill="#009DFF" d="M18.895,4.51h9.037l-1.04,1.04c-0.237,0.237-0.237,0.621,0,0.858c0.119,0.119,0.274,0.178,0.429,0.178
			c0.156,0,0.311-0.059,0.43-0.178l2.076-2.076c0.057-0.056,0.101-0.123,0.131-0.198c0.062-0.148,0.062-0.316,0-0.464
			c-0.031-0.074-0.075-0.142-0.131-0.198L27.75,1.396c-0.237-0.237-0.621-0.237-0.858,0c-0.237,0.237-0.237,0.621,0,0.858
			l1.04,1.041h-9.037l1.04-1.041c0.237-0.237,0.237-0.621,0-0.858c-0.238-0.237-0.622-0.237-0.859,0L17,3.473
			C16.944,3.529,16.9,3.596,16.869,3.67c-0.062,0.148-0.062,0.315,0,0.464C16.9,4.209,16.944,4.276,17,4.332l2.075,2.076
			c0.119,0.119,0.274,0.178,0.43,0.178c0.154,0,0.31-0.059,0.429-0.178c0.237-0.237,0.237-0.621,0-0.858L18.895,4.51z"/>
	</g>
	<path fill="#FFFFFF" d="M1.214,22.423c0-1.482,1.207-2.688,2.689-2.688h1.214v9.523c0,0.335,0.271,0.607,0.607,0.607
		c0.335,0,0.606-0.272,0.606-0.607V3.902c0-1.482,1.207-2.688,2.688-2.688c1.482,0,2.689,1.206,2.689,2.688V14.79v6.425
		c0,0.335,0.271,0.606,0.607,0.606s0.607-0.271,0.607-0.606V14.79c0-1.482,1.206-2.688,2.688-2.688c1.482,0,2.688,1.206,2.688,2.688
		v2.428v5.109c0,0.335,0.271,0.607,0.606,0.607c0.336,0,0.607-0.272,0.607-0.607v-5.109c0-1.482,1.207-2.688,2.689-2.688
		c1.482,0,2.688,1.206,2.688,2.688v7.083c0,0.335,0.271,0.606,0.607,0.606c0.336,0,0.607-0.271,0.607-0.606v-5.925
		c1.479,0.002,2.684,1.207,2.684,2.688v9.346c0,7.603-6.185,13.787-13.787,13.787c-7.602,0-13.788-6.185-13.788-13.787L1.214,22.423
		L1.214,22.423z"/>
</g>
</svg>
